# Blender v2.69 (sub 0) OBJ File: 'cube.blend'
# www.blender.org
o Cube
v 1.000000 -1.000000 -1.000000
v 1.000000 -1.000000 1.000000
v -1.000000 -1.000000 1.000000
v -1.000000 -1.000000 -1.000000
v 1.000000 1.000000 -0.999999
v 0.999999 1.000000 1.000001
v -1.000000 1.000000 1.000000
v -1.000000 1.000000 -1.000000
vt 1.000000 1.000000
vt 1.000000 0.000000
vt 0.000000 1.000000
vt 1.000001 -0.000000
vt 0.000001 -0.000000
vt 0.000000 0.000000
vt 1.000000 -0.000001
vt 0.000001 1.000000
vt 0.000001 -0.000001
vt -1.000000 0.000000
vt -1.000000 1.000000
vn 0.000000 -1.000000 0.000000
vn 0.000000 1.000000 0.000000
vn 0.000000 -0.000000 1.000000
vn -1.000000 -0.000000 -0.000000
vn 0.000000 0.000000 -1.000000
vn 1.000000 -0.000000 0.000000
vn 1.000000 0.000000 0.000001
s off
f 1/1/1 2/2/1 4/3/1
f 5/1/2 8/3/2 6/2/2
f 2/4/3 6/1/3 3/5/3
f 3/6/4 7/3/4 4/2/4
f 5/1/5 1/7/5 8/3/5
f 2/2/1 3/6/1 4/3/1
f 8/3/2 7/6/2 6/2/2
f 6/1/3 7/8/3 3/5/3
f 7/3/4 8/1/4 4/2/4
f 1/7/5 4/9/5 8/3/5
f 1/6/6 5/3/6 2/10/6
f 5/3/7 6/11/7 2/10/7
