# Blender v2.70 (sub 0) OBJ File: 'coin.blend'
# www.blender.org
mtllib coin.mtl
o Cylinder
v 0.000000 0.509278 -0.042983
v 0.000000 0.509278 0.042983
v 0.210720 0.387619 -0.042983
v 0.210720 0.387619 0.042983
v 0.210720 0.144300 -0.042983
v 0.210720 0.144300 0.042983
v -0.000000 0.022641 -0.042983
v -0.000000 0.022641 0.042983
v -0.210720 0.144300 -0.042983
v -0.210720 0.144300 0.042983
v -0.210720 0.387619 -0.042983
v -0.210720 0.387619 0.042983
vt 0.988574 0.999929
vt 0.761497 0.999929
vt 0.761497 0.000071
vt 0.988574 0.000071
vt 0.026426 0.304371
vt 0.383435 0.098251
vt 0.740445 0.304371
vt 0.740445 0.716610
vt 0.383435 0.922729
vt 0.026426 0.716610
vn 0.500000 0.866025 0.000000
vn 1.000000 0.000000 0.000000
vn 0.500000 -0.866026 0.000000
vn -0.500000 -0.866025 0.000000
vn 0.000000 0.000000 1.000000
vn -0.500000 0.866025 0.000000
vn -1.000000 -0.000000 0.000000
vn -0.000000 -0.000000 -1.000000
usemtl Material.001
s off
f 2/1/1 4/2/1 3/3/1
f 4/1/2 6/2/2 5/3/2
f 6/1/3 8/2/3 7/3/3
f 7/4/4 8/1/4 10/2/4
f 10/5/5 8/6/5 6/7/5
f 12/1/6 2/2/6 1/3/6
f 10/1/7 12/2/7 11/3/7
f 7/6/8 9/7/8 11/8/8
f 1/4/1 2/1/1 3/3/1
f 3/4/2 4/1/2 5/3/2
f 5/4/3 6/1/3 7/3/3
f 9/3/4 7/4/4 10/2/4
f 6/7/5 4/8/5 2/9/5
f 2/9/5 12/10/5 10/5/5
f 11/4/6 12/1/6 1/3/6
f 2/9/5 10/5/5 6/7/5
f 9/4/7 10/1/7 11/3/7
f 11/8/8 1/9/8 3/10/8
f 3/10/8 5/5/8 7/6/8
f 3/10/8 7/6/8 11/8/8
