# Blender v2.70 (sub 0) OBJ File: 'coin.blend'
# www.blender.org
mtllib coin.mtl
o Cylinder
v 0.000000 0.269126 -0.016308
v 0.000000 0.269126 0.016308
v 0.111354 0.204836 -0.016308
v 0.111354 0.204836 0.016308
v 0.111354 0.076255 -0.016308
v 0.111354 0.076255 0.016308
v -0.000000 0.011965 -0.016308
v -0.000000 0.011965 0.016308
v -0.111354 0.076255 -0.016308
v -0.111354 0.076255 0.016308
v -0.111354 0.204836 -0.016308
v -0.111354 0.204836 0.016308
v 0.000000 0.274789 -0.018823
v 0.000000 0.274789 0.018823
v 0.116259 0.207667 -0.018823
v 0.116259 0.207667 0.018823
v 0.116259 0.073423 -0.018823
v 0.116259 0.073423 0.018823
v -0.000000 0.006301 -0.018823
v -0.000000 0.006301 0.018823
v -0.116259 0.073423 -0.018823
v -0.116259 0.073423 0.018823
v -0.116259 0.207667 -0.018823
v -0.116259 0.207667 0.018823
v 0.000000 0.295997 -0.021797
v 0.000000 0.295997 0.021797
v 0.134625 0.218271 -0.021797
v 0.134625 0.218271 0.021797
v 0.134625 0.062819 -0.021797
v 0.134625 0.062819 0.021797
v -0.000000 -0.014907 -0.021797
v -0.000000 -0.014907 0.021797
v -0.134625 0.062819 -0.021797
v -0.134625 0.062819 0.021797
v -0.134625 0.218271 -0.021797
v -0.134625 0.218271 0.021797
v -0.000000 -0.014907 -0.021797
v -0.000000 -0.014907 0.021797
v -0.134625 0.062819 -0.021797
v -0.134625 0.062819 0.021797
vt 0.089644 0.338866
vt 0.385014 0.168335
vt 0.385014 0.153312
vt 0.076634 0.331355
vt 0.076634 0.687441
vt 0.089644 0.679930
vt 0.385014 0.865485
vt 0.385014 0.850462
vt 0.385014 0.097058
vt 0.027917 0.303228
vt 0.027917 0.715568
vt 0.385014 0.921739
vt 0.693394 0.331355
vt 0.680384 0.338866
vt 0.680384 0.679930
vt 0.693394 0.687441
vt 0.987180 -0.014427
vt 0.987180 1.016642
vt 0.758652 1.016642
vt 0.987178 1.216522
vt 0.758652 1.216522
vt 0.758652 -0.421580
vt 0.758652 -0.243807
vt 0.987177 -0.243807
vt 0.987178 1.164540
vt 0.758653 1.067418
vt 0.758652 -0.098240
vt 0.987177 -0.098240
vt 0.987178 -0.068814
vt 0.987178 1.073564
vt 0.758652 1.073564
vt 0.742112 0.303228
vt 0.742112 0.715568
vt 0.987177 -0.503068
vt 0.987178 1.302007
vt 0.758653 1.302008
vt 0.758655 -0.014427
vt 0.987178 -0.421580
vt 0.758653 1.164541
vt 0.987178 1.067418
vt 0.758652 -0.068814
vt 0.758652 -0.503068
vn 0.228148 0.395164 -0.889828
vn 0.228148 0.395164 0.889828
vn 0.456296 -0.000000 -0.889828
vn 0.456296 0.000000 0.889828
vn -0.000000 0.000000 1.000000
vn 0.228148 -0.395164 -0.889828
vn 0.228148 -0.395164 0.889828
vn 0.000000 -0.000000 -1.000000
vn 0.079913 0.138412 -0.987145
vn 0.079913 0.138413 0.987145
vn 0.159825 -0.000000 -0.987145
vn 0.159825 0.000000 0.987145
vn 0.079913 -0.138413 -0.987145
vn 0.079913 -0.138413 0.987145
vn -0.228148 0.395164 0.889828
vn -0.228148 0.395163 -0.889828
vn -0.456295 0.000000 0.889828
vn -0.456296 -0.000000 -0.889828
vn -0.228148 -0.395163 0.889828
vn -0.228148 -0.395164 -0.889828
vn 0.500000 0.866025 0.000000
vn 1.000000 0.000000 0.000000
vn 0.500000 -0.866025 0.000000
vn -0.500000 0.866025 0.000000
vn -1.000000 0.000000 0.000000
vn -0.079912 0.138413 0.987145
vn -0.079912 0.138413 -0.987145
vn -0.159825 0.000000 0.987145
vn -0.159825 -0.000000 -0.987145
vn -0.079913 -0.138413 0.987145
vn -0.079913 -0.138413 -0.987145
vn -0.500000 -0.866025 0.000000
vn 0.228149 -0.395165 0.889827
vn 0.228150 -0.395166 -0.889827
vn 0.079913 0.138413 -0.987145
vn 0.079913 -0.138412 0.987145
vn -0.228148 0.395163 0.889828
vn -0.228148 0.395164 -0.889828
vn -0.456296 0.000000 0.889828
vn -0.228148 -0.395164 0.889828
vn -0.079913 0.138413 0.987145
vn -0.079913 0.138412 -0.987145
vn -0.079912 -0.138413 0.987145
vn -0.079912 -0.138412 -0.987145
usemtl Material.001
s off
f 9/1/1 7/2/1 19/3/1
f 8/2/2 10/1/2 22/4/2
f 9/1/3 21/4/3 23/5/3
f 12/6/4 24/5/4 22/4/4
f 12/6/5 10/1/5 8/2/5
f 11/6/6 23/5/6 13/7/6
f 2/8/7 14/7/7 24/5/7
f 7/2/8 9/1/8 11/6/8
f 21/4/9 19/3/9 31/9/9
f 22/4/10 34/10/10 32/9/10
f 21/4/11 33/10/11 35/11/11
f 24/5/12 36/11/12 34/10/12
f 23/5/13 35/11/13 25/12/13
f 14/7/14 26/12/14 36/11/14
f 8/2/15 20/3/15 18/13/15
f 5/14/16 17/13/16 19/3/16
f 4/15/17 6/14/17 18/13/17
f 3/15/18 15/16/18 17/13/18
f 2/8/19 4/15/19 16/16/19
f 1/8/20 13/7/20 15/16/20
f 26/17/21 28/18/21 27/19/21
f 27/20/22 28/21/22 30/22/22
f 29/23/23 30/24/23 32/25/23
f 36/26/24 26/27/24 25/28/24
f 34/29/25 36/30/25 35/31/25
f 20/3/26 32/9/26 30/32/26
f 17/13/27 29/32/27 31/9/27
f 16/16/28 18/13/28 30/32/28
f 17/13/29 15/16/29 27/33/29
f 14/7/30 16/16/30 28/33/30
f 15/16/31 13/7/31 25/12/31
f 38/34/32 40/35/32 39/36/32
f 21/4/1 9/1/1 19/3/1
f 20/3/2 8/2/2 22/4/2
f 11/6/3 9/1/3 23/5/3
f 10/1/4 12/6/4 22/4/4
f 6/14/5 4/15/5 2/8/5
f 12/6/33 2/8/33 24/5/33
f 6/14/5 12/6/5 8/2/5
f 1/8/34 11/6/34 13/7/34
f 6/14/5 2/8/5 12/6/5
f 11/6/8 1/8/8 3/15/8
f 7/2/8 11/6/8 5/14/8
f 33/10/35 21/4/35 31/9/35
f 20/3/10 22/4/10 32/9/10
f 11/6/8 3/15/8 5/14/8
f 23/5/11 21/4/11 35/11/11
f 22/4/12 24/5/12 34/10/12
f 13/7/13 23/5/13 25/12/13
f 24/5/36 14/7/36 36/11/36
f 6/14/37 8/2/37 18/13/37
f 7/2/38 5/14/38 19/3/38
f 16/16/39 4/15/39 18/13/39
f 5/14/18 3/15/18 17/13/18
f 14/7/40 2/8/40 16/16/40
f 3/15/20 1/8/20 15/16/20
f 25/37/21 26/17/21 27/19/21
f 29/38/22 27/20/22 30/22/22
f 31/39/23 29/23/23 32/25/23
f 35/40/24 36/26/24 25/28/24
f 33/41/25 34/29/25 35/31/25
f 18/13/41 20/3/41 30/32/41
f 19/3/42 17/13/42 31/9/42
f 28/33/28 16/16/28 30/32/28
f 29/32/29 17/13/29 27/33/29
f 26/12/43 14/7/43 28/33/43
f 27/33/44 15/16/44 25/12/44
f 37/42/32 38/34/32 39/36/32
