# Blender v2.70 (sub 0) OBJ File: 'maze.blend'
# www.blender.org
mtllib maze_col.mtl
o Plane.001_Plane.004
v -1.758483 0.091141 0.664206
v 5.797445 0.091141 0.664206
v -1.758483 0.091141 -1.478613
v 5.797445 0.091141 -1.478613
v 8.163109 0.091141 0.664206
v 8.163109 0.091141 -1.478613
v 5.797445 0.091141 1.939247
v 8.163109 0.091141 1.939247
v 5.797445 0.091141 7.949615
v 8.163109 0.091141 7.949615
v 3.179690 0.091141 1.939247
v 3.179690 0.091141 7.949615
v 0.698440 0.091141 0.664206
v 0.698439 0.091141 -1.478613
v 0.191895 0.091141 -1.478613
v 0.191897 0.091141 0.664206
v 0.698439 0.091141 -2.581794
v 0.191895 0.091141 -2.581794
v 0.698439 0.091141 -6.402573
v 0.191895 0.091141 -6.402573
v 11.768941 0.091141 -2.581794
v 11.768941 0.091141 -6.402573
v -9.081967 0.091141 -2.581794
v -9.081967 0.091141 -6.402573
v 8.163109 0.091141 2.981697
v 5.797445 0.091141 2.981697
v 3.179690 0.091141 2.981697
v 1.585493 0.091141 1.939247
v 1.585493 0.091141 2.981697
v 2.361615 0.091141 2.981697
v 2.361615 0.091141 1.939247
v 1.585493 0.091141 4.806633
v 2.361615 0.091141 4.806633
v 5.797445 0.091141 5.733201
v 3.179690 0.091141 5.733201
v 8.163109 0.091141 5.733201
v 1.616076 0.091141 7.949615
v 1.616076 0.091141 5.733201
v 2.502395 0.091141 0.664206
v 2.502394 0.091141 -1.478613
v 3.771110 0.091141 0.664206
v 3.771109 0.091141 -1.478613
v 5.536902 0.091141 0.664206
v 5.536902 0.091141 -1.478613
v 6.743711 0.091141 -1.478613
v 6.743711 0.091141 0.664206
v 6.743711 0.091141 1.939247
v 6.743711 0.091141 7.949615
v 6.743711 0.091141 2.981697
v 6.743711 0.091141 5.733201
v -0.612623 0.091141 -1.478613
v -0.612622 0.091141 0.664206
v 5.797445 0.091141 -1.781278
v 0.698439 0.091141 -1.781278
v 0.191895 0.091141 -1.781278
v 2.502394 0.091141 -1.781278
v 3.771109 0.091141 -1.781278
v 5.536902 0.091141 -1.781278
v 6.743711 0.091141 -1.781278
v -0.612623 0.091141 -1.781278
v -0.134073 0.091141 -1.478613
v -0.134072 0.091141 0.664206
v -0.134073 0.091141 -1.781278
v 0.698440 0.091141 8.298158
v 0.191897 0.091141 8.298158
v -0.134072 0.091141 8.298158
vt 0.714323 0.350513
vt 0.714277 0.453545
vt 0.701750 0.453538
vt 0.759824 0.350535
vt 0.828073 0.350569
vt 0.828023 0.453600
vt 0.714353 0.289202
vt 0.759855 0.289225
vt 0.714450 0.106768
vt 0.714507 0.000191
vt 0.760009 0.000215
vt 0.588477 0.289135
vt 0.588504 0.239008
vt 0.469164 0.350419
vt 0.469122 0.453437
vt 0.444779 0.453426
vt 0.444812 0.350412
vt 0.425442 0.453421
vt 0.469084 0.506402
vt 0.469070 0.689612
vt 0.444781 0.689611
vt 0.999917 0.506445
vt 0.999903 0.689652
vt 0.000083 0.689612
vt 0.000083 0.506398
vt 0.714380 0.239075
vt 0.759881 0.239099
vt 0.588574 0.106701
vt 0.549139 0.289114
vt 0.511819 0.289094
vt 0.511846 0.238968
vt 0.549166 0.238987
vt 0.511892 0.151215
vt 0.549213 0.151235
vt 0.759951 0.106792
vt 0.588631 0.000123
vt 0.513387 0.106661
vt 0.513444 0.000083
vt 0.555894 0.350452
vt 0.555852 0.453474
vt 0.616893 0.350475
vt 0.616850 0.453501
vt 0.701795 0.350509
vt 0.759775 0.453567
vt 0.828105 0.289260
vt 0.828261 0.000252
vt 0.828132 0.239135
vt 0.828203 0.106829
vt 0.406135 0.350400
vt 0.406104 0.453415
vt 0.351018 0.453399
vt 0.444779 0.467971
vt 0.425441 0.467969
vt 0.616844 0.468053
vt 0.555845 0.468026
vt 0.469105 0.467978
vt 0.714269 0.468097
vt 0.701742 0.468091
vt 0.759768 0.468120
vt 0.444781 0.506398
vt 0.425473 0.350406
vt 0.406102 0.467966
vt 0.351048 0.350384
vn 0.000000 1.000000 0.000000
usemtl Material
s off
f 2/1/1 4/2/1 44/3/1
f 46/4/1 5/5/1 6/6/1
f 2/1/1 7/7/1 47/8/1
f 34/9/1 9/10/1 48/11/1
f 7/7/1 11/12/1 27/13/1
f 13/14/1 14/15/1 15/16/1
f 16/17/1 15/16/1 61/18/1
f 17/19/1 19/20/1 20/21/1
f 17/19/1 21/22/1 22/23/1
f 20/21/1 24/24/1 23/25/1
f 7/7/1 26/26/1 49/27/1
f 26/26/1 27/13/1 35/28/1
f 31/29/1 28/30/1 29/31/1
f 11/12/1 31/29/1 30/32/1
f 29/31/1 32/33/1 33/34/1
f 26/26/1 34/9/1 50/35/1
f 34/9/1 35/28/1 12/36/1
f 35/28/1 38/37/1 37/38/1
f 39/39/1 40/40/1 14/15/1
f 41/41/1 42/42/1 40/40/1
f 43/43/1 44/3/1 42/42/1
f 2/1/1 46/4/1 45/44/1
f 46/4/1 47/8/1 8/45/1
f 50/35/1 48/11/1 10/46/1
f 47/8/1 49/27/1 25/47/1
f 49/27/1 50/35/1 36/48/1
f 52/49/1 51/50/1 3/51/1
f 15/16/1 55/52/1 63/53/1
f 42/42/1 57/54/1 56/55/1
f 14/15/1 54/56/1 55/52/1
f 4/2/1 53/57/1 58/58/1
f 45/44/1 59/59/1 53/57/1
f 18/60/1 55/52/1 54/56/1
f 62/61/1 61/18/1 51/50/1
f 61/18/1 63/53/1 60/62/1
f 62/61/1 66/61/1 65/17/1
f 16/17/1 65/17/1 64/14/1
f 43/43/1 2/1/1 44/3/1
f 45/44/1 46/4/1 6/6/1
f 46/4/1 2/1/1 47/8/1
f 50/35/1 34/9/1 48/11/1
f 26/26/1 7/7/1 27/13/1
f 16/17/1 13/14/1 15/16/1
f 62/61/1 16/17/1 61/18/1
f 18/60/1 17/19/1 20/21/1
f 19/20/1 17/19/1 22/23/1
f 18/60/1 20/21/1 23/25/1
f 47/8/1 7/7/1 49/27/1
f 34/9/1 26/26/1 35/28/1
f 30/32/1 31/29/1 29/31/1
f 27/13/1 11/12/1 30/32/1
f 30/32/1 29/31/1 33/34/1
f 49/27/1 26/26/1 50/35/1
f 9/10/1 34/9/1 12/36/1
f 12/36/1 35/28/1 37/38/1
f 13/14/1 39/39/1 14/15/1
f 39/39/1 41/41/1 40/40/1
f 41/41/1 43/43/1 42/42/1
f 4/2/1 2/1/1 45/44/1
f 5/5/1 46/4/1 8/45/1
f 36/48/1 50/35/1 10/46/1
f 8/45/1 47/8/1 25/47/1
f 25/47/1 49/27/1 36/48/1
f 1/63/1 52/49/1 3/51/1
f 61/18/1 15/16/1 63/53/1
f 40/40/1 42/42/1 56/55/1
f 15/16/1 14/15/1 55/52/1
f 44/3/1 4/2/1 58/58/1
f 4/2/1 45/44/1 53/57/1
f 17/19/1 18/60/1 54/56/1
f 52/49/1 62/61/1 51/50/1
f 51/50/1 61/18/1 60/62/1
f 16/17/1 62/61/1 65/17/1
f 13/14/1 16/17/1 64/14/1
