# Blender v2.70 (sub 0) OBJ File: 'maze.blend'
# www.blender.org
mtllib maze_col.mtl
o Plane.001_Plane.004
v -1.758483 0.091141 0.664206
v 5.797445 0.091141 0.664206
v -1.758483 0.091141 -1.478613
v 5.797445 0.091141 -1.478613
v 8.163109 0.091141 0.664206
v 8.163109 0.091141 -1.478613
v 5.797445 0.091141 1.939247
v 8.163109 0.091141 1.939247
v 5.797445 0.091141 6.984707
v 8.163109 0.091141 6.984707
v 3.473358 0.091141 1.939247
v 3.473358 0.091141 6.984707
v 0.698440 0.091141 0.664206
v 0.698439 0.091141 -1.478613
v 0.191895 0.091141 -1.478613
v 0.191897 0.091141 0.664206
v 0.698439 0.091141 -2.581794
v 0.191895 0.091141 -2.581794
v 0.698439 0.091141 -9.510695
v 0.191895 0.091141 -9.510695
v 9.547331 0.091141 -2.581794
v 9.547331 0.091141 -9.510695
v -9.081967 0.091141 -2.581794
v -9.081967 0.091141 -9.510695
vt 0.383186 0.074055
vt 0.513071 0.074021
vt 0.513097 0.174585
vt 0.383173 0.027399
vt 0.305900 0.074076
vt 0.305888 0.027419
vt 0.000073 0.074161
vt 0.000061 0.027504
vt 0.305913 0.119913
vt 0.000086 0.119998
vt 0.383212 0.174619
vt 0.513101 0.192465
vt 0.383217 0.192499
vt 0.513109 0.223041
vt 0.579965 0.174576
vt 0.579966 0.192455
vt 0.999939 0.174576
vt 0.999939 0.192455
vt 0.579965 0.000061
vt 0.999939 0.000061
vt 0.999939 0.367462
vt 0.579966 0.367462
vt 0.513058 0.027364
vt 0.383225 0.223075
vn 0.000000 1.000000 0.000000
usemtl Material
s off
f 2/1/1 4/2/1 14/3/1
f 4/2/1 2/1/1 5/4/1
f 2/1/1 7/5/1 8/6/1
f 7/5/1 9/7/1 10/8/1
f 7/5/1 11/9/1 12/10/1
f 13/11/1 14/3/1 15/12/1
f 16/13/1 15/12/1 3/14/1
f 14/3/1 17/15/1 18/16/1
f 17/15/1 19/17/1 20/18/1
f 17/15/1 21/19/1 22/20/1
f 20/18/1 24/21/1 23/22/1
f 13/11/1 2/1/1 14/3/1
f 6/23/1 4/2/1 5/4/1
f 5/4/1 2/1/1 8/6/1
f 8/6/1 7/5/1 10/8/1
f 9/7/1 7/5/1 12/10/1
f 16/13/1 13/11/1 15/12/1
f 1/24/1 16/13/1 3/14/1
f 15/12/1 14/3/1 18/16/1
f 18/16/1 17/15/1 20/18/1
f 19/17/1 17/15/1 22/20/1
f 18/16/1 20/18/1 23/22/1
