# Blender v2.70 (sub 0) OBJ File: ''
# www.blender.org
mtllib maze.mtl
o Plane.001_Plane.002
v -5.616549 0.036313 5.631370
v 1.727636 0.036313 5.631370
v -5.616549 0.036313 -5.631370
v 1.727636 0.036313 -5.631370
vn 0.000000 1.000000 0.000000
usemtl None
s off
f 2//1 4//1 3//1
f 1//1 2//1 3//1
o Cube_Cube.001
v 1.774354 0.069395 1.950016
v 1.774354 0.069395 -4.453772
v 3.774354 0.069395 -4.453772
v 3.774354 0.069395 1.950016
v 1.774354 2.069395 1.950016
v 1.774354 2.069395 -4.453772
v 3.774354 2.069395 -4.453772
v 3.774354 2.069395 1.950016
vt 1.000000 0.000000
vt 1.000000 1.000000
vt 0.000000 1.000000
vt 0.000000 0.000000
vn -1.000000 0.000000 0.000000
vn 0.000000 0.000000 -1.000000
vn 1.000000 0.000000 0.000000
vn 0.000000 0.000000 1.000000
vn 0.000000 -1.000000 0.000000
vn 0.000000 1.000000 0.000000
usemtl None
s off
f 10/1/2 6/2/2 5/3/2
f 11/1/3 7/2/3 6/3/3
f 12/1/4 8/2/4 7/3/4
f 9/1/5 5/2/5 8/3/5
f 6/1/6 7/2/6 8/3/6
f 11/1/7 10/2/7 9/3/7
f 9/4/2 10/1/2 5/3/2
f 10/4/3 11/1/3 6/3/3
f 11/4/4 12/1/4 7/3/4
f 12/4/5 9/1/5 8/3/5
f 5/4/6 6/1/6 8/3/6
f 12/4/7 11/1/7 9/3/7
o Plane
v -5.631370 0.000000 5.631370
v 5.631370 0.000000 5.631370
v -5.631370 0.000000 -5.631370
v 5.631370 0.000000 -5.631370
vt 0.999900 0.000100
vt 0.999900 0.999900
vt 0.000100 0.999900
vt 0.000100 0.000100
vn 0.000000 1.000000 0.000000
usemtl None
s off
f 14/5/8 16/6/8 15/7/8
f 13/8/8 14/5/8 15/7/8
